<?xml version="1.0" standalone="no"?>
<!DOCTYPE svg PUBLIC "-//W3C//DTD SVG 20010904//EN"
 "http://www.w3.org/TR/2001/REC-SVG-20010904/DTD/svg10.dtd">
<svg version="1.0" xmlns="http://www.w3.org/2000/svg"
 width="1024.000000pt" height="1024.000000pt" viewBox="0 0 1024.000000 1024.000000"
 preserveAspectRatio="xMidYMid meet">
<metadata>
Created by potrace 1.11, written by Peter Selinger 2001-2013
</metadata>
<g transform="translate(0.000000,1024.000000) scale(0.100000,-0.100000)"
fill="#000000" stroke="none">
<path d="M200 9768 c-73 -28 -151 -108 -179 -182 -26 -71 -24 -181 6 -247 39
-86 106 -146 208 -184 28 -10 68 -26 90 -35 62 -27 83 -35 375 -152 151 -60
289 -116 305 -123 17 -8 100 -41 185 -75 85 -34 169 -68 185 -75 17 -7 37 -15
46 -18 13 -4 33 -84 66 -272 3 -16 18 -97 35 -180 35 -181 31 -158 74 -385 19
-102 41 -216 49 -255 8 -38 16 -83 19 -100 3 -16 8 -41 11 -55 9 -43 47 -244
51 -270 2 -14 9 -45 14 -70 5 -25 12 -61 15 -80 4 -19 19 -100 35 -180 32
-158 99 -510 106 -550 2 -14 9 -45 14 -70 5 -25 18 -94 30 -155 11 -60 23
-121 25 -135 3 -14 12 -61 21 -105 8 -44 26 -136 39 -205 13 -69 27 -136 29
-150 3 -14 19 -97 36 -185 17 -88 35 -187 41 -219 5 -33 12 -62 14 -65 1 -3 6
-22 9 -42 3 -19 17 -96 32 -170 14 -74 28 -143 30 -154 2 -11 6 -31 9 -45 2
-14 7 -38 10 -55 2 -16 9 -55 15 -85 6 -30 13 -66 16 -80 3 -14 11 -59 19
-100 8 -41 17 -87 20 -102 9 -50 15 -82 31 -161 8 -42 18 -90 20 -105 3 -15
14 -71 25 -125 10 -53 21 -112 24 -130 8 -41 70 -362 89 -459 17 -81 35 -177
42 -223 16 -94 47 -212 65 -246 26 -53 91 -114 148 -142 l46 -22 3145 0 3145
0 56 26 c67 32 129 92 161 156 19 40 23 64 23 138 0 78 -4 97 -27 141 -48 92
-132 155 -229 172 -24 4 -1366 8 -2982 7 l-2937 0 -6 35 c-4 19 -8 44 -11 55
-2 11 -14 76 -28 145 -13 69 -32 167 -43 218 l-19 92 51 0 c28 1 1385 2 3016
4 1631 2 2979 7 2995 11 91 23 179 96 216 179 14 33 84 309 105 416 5 27 65
284 90 389 9 36 17 72 19 80 3 15 53 233 59 256 1 6 10 46 20 90 10 44 21 91
26 105 5 14 11 39 14 55 2 17 13 68 25 115 12 47 23 94 25 105 3 11 14 61 25
110 12 50 31 131 42 180 11 50 22 97 24 105 2 8 15 62 28 120 14 58 55 233 92
390 36 157 68 293 70 303 10 45 80 347 110 472 19 78 36 152 39 165 2 14 16
72 30 130 14 58 27 116 30 130 2 14 14 66 26 115 45 187 -1 321 -141 408 -73
45 96 43 -4016 42 l-3882 0 -10 60 c-6 33 -13 71 -16 85 -3 14 -19 97 -36 185
-17 88 -44 230 -61 315 -34 174 -54 225 -111 282 -55 54 38 14 -849 372 -739
298 -687 279 -768 283 -59 2 -87 -1 -130 -19z m9310 -2212 c0 -4 -119 -517
-145 -626 -12 -53 -18 -70 -24 -71 -3 -1 -1192 -2 -2641 -3 l-2636 -1 -66 -33
c-66 -32 -117 -83 -151 -147 -14 -28 -19 -47 -31 -127 -6 -35 15 -123 42 -174
26 -51 87 -106 149 -136 l48 -23 2559 -2 c1407 -1 2564 -4 2571 -7 9 -3 3 -43
-25 -163 -21 -87 -53 -222 -71 -300 l-33 -143 -2036 -2 -2035 -3 -57 -29
c-163 -81 -225 -270 -144 -439 29 -59 114 -131 182 -152 56 -17 145 -18 1997
-18 l1938 0 -5 -36 c-3 -20 -13 -65 -21 -101 -9 -36 -18 -76 -21 -90 -3 -14
-12 -52 -21 -85 -8 -33 -17 -71 -20 -85 -2 -14 -12 -59 -21 -100 l-18 -75
-284 -2 c-157 -2 -1474 -4 -2927 -5 l-2642 -3 -7 35 c-4 19 -8 40 -10 45 -1 6
-11 60 -22 120 -12 61 -46 238 -76 395 -30 157 -58 299 -60 315 -7 34 -12 60
-26 130 -13 64 -18 87 -31 160 -6 33 -24 128 -40 210 -30 147 -74 381 -85 440
-3 17 -11 62 -19 100 -8 39 -17 84 -20 100 -7 38 -32 170 -40 210 -3 17 -21
110 -40 207 -19 98 -38 194 -41 215 -3 21 -7 40 -9 43 -2 3 -6 26 -10 50 -3
25 -11 64 -16 88 -5 23 -12 59 -15 80 -3 20 -7 45 -10 54 -3 10 -7 29 -10 43
-2 14 -6 37 -9 53 -3 15 -8 42 -12 60 l-6 32 3602 0 c1980 0 3601 -2 3601 -4z"/>
<path d="M4015 5575 c-146 -59 -227 -222 -188 -375 31 -121 117 -205 239 -233
261 -58 476 208 362 449 -71 153 -254 223 -413 159z"/>
<path d="M3737 2284 c-1 -1 -31 -4 -67 -8 -379 -35 -716 -341 -796 -721 -29
-136 -22 -341 16 -440 9 -23 8 -25 -23 -25 -17 -1 -491 -2 -1052 -3 l-1020 -2
-53 -28 c-247 -130 -243 -462 7 -584 l56 -28 1515 0 c1567 -1 1587 0 1727 40
179 52 382 202 488 360 248 374 202 857 -112 1168 -174 172 -386 263 -635 271
-27 1 -50 1 -51 0z m154 -673 c169 -81 209 -310 76 -441 -49 -48 -104 -72
-177 -78 -54 -3 -74 0 -120 21 -67 29 -98 58 -136 123 -25 43 -29 59 -29 129
0 69 4 86 27 127 35 58 98 113 152 131 59 20 152 15 207 -12z"/>
<path d="M5243 2275 c-75 -17 -120 -43 -168 -97 -116 -129 -113 -321 7 -441
61 -61 123 -89 213 -95 240 -15 410 234 308 450 -17 35 -40 73 -51 85 -84 87
-198 123 -309 98z"/>
<path d="M6098 2277 c-18 -4 -42 -9 -53 -12 -11 -3 -43 -21 -71 -40 -199 -137
-177 -439 40 -553 l51 -27 698 -3 c655 -2 698 -4 693 -20 -38 -121 -44 -361
-12 -472 8 -30 14 -55 13 -57 -2 -1 -68 -4 -147 -5 -132 -3 -150 -6 -200 -30
-110 -52 -180 -155 -185 -273 -5 -110 30 -192 111 -264 88 -77 68 -75 789 -75
618 0 643 1 721 21 226 59 403 176 534 353 125 170 184 364 176 581 -4 107
-13 161 -48 264 -106 312 -393 555 -719 606 -85 14 -2335 19 -2391 6z m2316
-651 c179 -54 254 -253 154 -412 -51 -80 -125 -119 -227 -119 -61 0 -85 5
-124 25 -167 85 -202 305 -69 438 69 69 174 96 266 68z"/>
</g>
</svg>
