
<svg xmlns="http://www.w3.org/2000/svg" version="1.1" xmlns:xlink="http://www.w3.org/1999/xlink" preserveAspectRatio="none" x="0px" y="0px" width="160px" height="160px" viewBox="0 0 160 160">
<defs>
<path id="Layer0_0_1_STROKES" stroke="#48B56A" stroke-width="12" stroke-linejoin="round" stroke-linecap="round" fill="none" d="
M 129.3 16.3
Q 130.95 13.8 133.6 15.45
L 149.55 22.95 165.45 15.15
Q 168.1 13.65 169.8 16.45
L 180.85 30.7 198.45 31.4
Q 201.4 31.25 201.6 34.45
L 204.75 52.3 219.65 60.75
Q 222.45 61.9 221.15 64.7
L 215.8 81.85 225.1 96.55
Q 226.9 98.85 224.5 100.7
L 212.05 112.9 213.3 130.7
Q 213.55 133.7 210.55 134.35
L 193.45 139.35 186.15 155.55
Q 185.2 158.35 182.2 157.4
L 165.3 154.05 151.35 165.55
Q 149 167.35 146.9 165.15
L 133.75 154.35 115.85 157.7
Q 112.9 158.5 111.9 155.55
L 105.3 139.35 88.55 134.35
Q 85.55 133.8 86.2 130.7
L 87.5 113.6 74.25 100.85
Q 72.1 98.85 74.1 96.4
L 83.25 81.85 77.75 64.05
Q 76.8 61.4 79.6 60.1
L 94.35 51.95 97.15 34.2
Q 97.45 31.25 100.6 31.55
L 118.5 30.55 129.3 16.3 Z
M 179.05 106.8
Q 179.05 113.1 175.95 117.55 172.9 122.05 168.55 122.05 164.2 122.05 161.1 117.55 158.05 113.1 158.05 106.8 158.05 100.5 161.1 96 164.2 91.55 168.55 91.55 172.9 91.55 175.95 96 179.05 100.5 179.05 106.8 Z
M 140.55 73.05
Q 140.55 79.35 137.45 83.8 134.4 88.3 130.05 88.3 125.7 88.3 122.6 83.8 119.55 79.35 119.55 73.05 119.55 66.75 122.6 62.25 125.7 57.8 130.05 57.8 134.4 57.8 137.45 62.25 140.55 66.75 140.55 73.05 Z
M 130.55 120.55
L 166.55 60.55"/>
</defs>

<g transform="matrix( 1, 0, 0, 1, -69.5,-10.5) ">
<use xlink:href="#Layer0_0_1_STROKES"/>
</g>
</svg>
