<svg id="Layer_1" data-name="Layer 1" xmlns="http://www.w3.org/2000/svg" viewBox="0 0 51.04 46.48">
    <defs>
        <style>
            .cls-1{fill:#48b56a}
        </style>
    </defs>
    <ellipse class="cls-1" cx="21.25" cy="22.22" rx="1.36" ry="1.38"/>
    <ellipse class="cls-1" cx="28.19" cy="38.95" rx="1.36" ry="1.37"/>
    <path class="cls-1" d="M43.64,40.48a2,2,0,0,1,.28.23A2,2,0,0,0,43.64,40.48Z"/>
    <path class="cls-1" d="M44,40.77a2.21,2.21,0,0,1,.2.24A2.21,2.21,0,0,0,44,40.77Z"/>
    <path class="cls-1" d="M43.42,40.35l0,0,.14.07Z"/>
    <path class="cls-1" d="M44.41,41.43a2,2,0,0,1,.1.34A2,2,0,0,0,44.41,41.43Z"/>
    <path class="cls-1" d="M44.21,41.07a2.16,2.16,0,0,1,.18.33A2.11,2.11,0,0,0,44.21,41.07Z"/>
    <path class="cls-1" d="M19.34,40a1.92,1.92,0,0,0-.38,0,2.26,2.26,0,0,1,.38,0Z"/>
    <path class="cls-1" d="M18.2,40.39a2,2,0,0,1,.31-.17A2,2,0,0,0,18.2,40.39Z"/>
    <path class="cls-1" d="M18.72,40.14l-.12.05.31-.1Z"/>
    <path class="cls-1" d="M18.17,44a2.09,2.09,0,0,0,1.59.32,2.15,2.15,0,0,1-1.59-3.89,2.15,2.15,0,0,0,0,3.56Z"/>
    <path class="cls-1" d="M44.57,42.24a2.24,2.24,0,0,0,0-.39,2.3,2.3,0,0,1,0,.39Z"/>
    <path class="cls-1" d="M44.55,42.4a2.06,2.06,0,0,1,0,.28A2.06,2.06,0,0,0,44.55,42.4Z"/>
    <path class="cls-1" d="M42.36,44.39l-.29,0Z"/>
    <path class="cls-1" d="M41.85,44.31l-.09,0Z"/>
    <path class="cls-1" d="M42.43,44.39h0a2.13,2.13,0,0,0,2-1.58A2.14,2.14,0,0,1,42.43,44.39Z"/>
    <path class="cls-1" d="M35.6,45.17a1.19,1.19,0,0,0,1.18,1.2h3.93s5.85.72,6-4.16a4.43,4.43,0,0,0-4.41-4.45H31.67a1.19,1.19,0,0,0,0,2.39h6.72A4.48,4.48,0,0,0,38.24,44H36.78A1.19,1.19,0,0,0,35.6,45.17Zm6.82-5.07a2.13,2.13,0,0,1,1,.27l0,0,.16.1.06,0a2,2,0,0,1,.28.23l.05.05a2.21,2.21,0,0,1,.2.24l0,.06a2.11,2.11,0,0,1,.18.33v0a2,2,0,0,1,.1.34l0,.08a2.24,2.24,0,0,1,0,.39h0c0,.05,0,.1,0,.15a2.06,2.06,0,0,1,0,.28s0,.09,0,.14a2.13,2.13,0,0,1-2,1.58h-.08l-.29,0-.22,0-.09,0a2.14,2.14,0,0,1,.65-4.18Z"/>
    <path class="cls-1" d="M47.55,8.09H10.7l-.4-2.23S9.89,3.26,8.72,2.75L5.79,1.49h0L4.41.94,1.4,0C.86.68.39,1.32,0,1.87L2.64,2.93l0,0,1.83.73h0l.14.05h0l1.61.57S7.86,5,8,6.18l5,26.3s.31,3.19,3.16,3.35h29a1.34,1.34,0,0,0,0-2.67H43.43l-4.57,0h0l-23.09.24L15,29.69H44.07s3,.56,3.55-2.31l3.24-15S52.2,7.85,47.55,8.09Zm.22,6.46H21.07a1.4,1.4,0,0,0,0,2.79H47.15l-.8,3.59h-20a1.36,1.36,0,0,0,0,2.71H45.76l-.81,3.67H14.72L11.33,10.72l37.32-.16Z"/>
    <path class="cls-1" d="M19.25,37.63A4.42,4.42,0,0,0,15.31,44H4.9A1.24,1.24,0,0,0,4,46.1H4l.26.3.18.07H7.77l0,0H18.86l.38,0a4.42,4.42,0,0,0,0-8.85Zm.52,6.66A2.09,2.09,0,0,1,18.17,44a2.15,2.15,0,0,1,0-3.56h0a2,2,0,0,1,.31-.17l.09,0,.12-.05.19,0H19a1.92,1.92,0,0,1,.38,0h0a2.15,2.15,0,0,1,.38,4.26Z"/>
    <path class="cls-1" d="M44.57,42.25h0c0,.05,0,.1,0,.15S44.57,42.3,44.57,42.25Z"/>
    <path class="cls-1" d="M44.52,42.68s0,.09,0,.14S44.51,42.73,44.52,42.68Z"/>
    <path class="cls-1" d="M44.51,41.77l0,.08Z"/>
    <path class="cls-1" d="M43.92,40.71l.05.05Z"/>
    <path class="cls-1" d="M44.4,41.4v0Z"/>
    <path class="cls-1" d="M43.58,40.44l.06,0Z"/>
    <path class="cls-1" d="M44.17,41l0,.06Z"/>
    <path class="cls-1" d="M42.42,44.39h0Z"/>
    <path class="cls-1" d="M42.07,44.36l-.22,0Z"/>
    <path class="cls-1" d="M18.18,40.41h0Z"/>
    <path class="cls-1" d="M18.91,40.09h0Z"/>
    <path class="cls-1" d="M18.51,40.23l.09,0Z"/>
</svg>
