<svg xmlns="http://www.w3.org/2000/svg" version="1.1" xmlns:xlink="http://www.w3.org/1999/xlink" preserveAspectRatio="none" x="0px" y="0px" width="160px" height="160px" viewBox="0 0 160 160">
    <defs>
        <g id="Layer0_0_FILL">
            <path fill="#000000" stroke="none" d="
                M 1071.2 74.75
                Q 1067.8 74.75 1067.8 78.15
                L 1067.8 103.05
                Q 1067.8 106.4 1071.2 106.4
                L 1096.25 106.4
                Q 1099.65 106.4 1099.65 103.05
                L 1099.65 78.15
                Q 1099.65 74.75 1096.25 74.75
                L 1071.2 74.75
                M 1159.9 74.75
                L 1134.85 74.75
                Q 1131.45 74.75 1131.45 78.15
                L 1131.45 103.05
                Q 1131.45 106.4 1134.85 106.4
                L 1159.9 106.4
                Q 1163.3 106.4 1163.3 103.05
                L 1163.3 78.15
                Q 1163.3 74.75 1159.9 74.75
                M 1227 78.15
                Q 1227 74.75 1223.6 74.75
                L 1198.5 74.75
                Q 1195.15 74.75 1195.15 78.15
                L 1195.15 103.05
                Q 1195.15 106.4 1198.5 106.4
                L 1223.6 106.4
                Q 1227 106.4 1227 103.05
                L 1227 78.15 Z"/>
        </g>
    </defs>
    <g transform="matrix( 1, 0, 0, 1, -1067.4,-10.55) ">
        <use xlink:href="#Layer0_0_FILL"/>
    </g>
</svg>
