
<svg xmlns="http://www.w3.org/2000/svg" version="1.1" xmlns:xlink="http://www.w3.org/1999/xlink" preserveAspectRatio="none" x="0px" y="0px" width="160px" height="160px" viewBox="0 0 160 160">
<defs>
<path id="Layer0_0_1_STROKES" stroke="#000000" stroke-width="9" stroke-linejoin="round" stroke-linecap="round" fill="none" d="
M 377.575 278.725
Q 380.1 283.3939453125 380.1 289.1 380.1 298.2 373.65 304.65 367.2 311.1 358.1 311.1 349 311.1 342.55 304.65 336.1 298.2 336.1 289.1 336.1 280 342.55 273.55 349 267.1 358.1 267.1 367.2 267.1 373.65 273.55 376.05546875 275.95546875 377.575 278.725
L 433.1 245.725
Q 431.15 241.5388671875 431.15 236.55 431.15 227.45 437.6 221 444.05 214.55 453.15 214.55 462.25 214.55 468.7 221 475.15 227.45 475.15 236.55 475.15 245.65 468.7 252.1 462.25 258.55 453.15 258.55 444.05 258.55 437.6 252.1 434.6859375 249.1859375 433.1 245.725
M 378.6 298.6
L 432.575 331.95
Q 434.1728515625 328.4771484375 437.1 325.55 443.55 319.1 452.65 319.1 461.75 319.1 468.2 325.55 474.65 332 474.65 341.1 474.65 350.2 468.2 356.65 461.75 363.1 452.65 363.1 443.55 363.1 437.1 356.65 430.65 350.2 430.65 341.1 430.65 336.1296875 432.575 331.95"/>
</defs>

<g transform="matrix( 1, 0, 0, 1, -325.6,-208.8) ">
<use xlink:href="#Layer0_0_1_STROKES"/>
</g>
</svg>
